<?xml version="1.0" encoding="UTF-8"?> <svg xmlns="http://www.w3.org/2000/svg" width="30" height="31" viewBox="0 0 30 31" fill="none"><path d="M20.4811 10.9619C20.5154 10.9621 20.5495 10.9694 20.5817 10.9834C20.6139 10.9975 20.6441 11.0183 20.6696 11.0449C20.695 11.0716 20.716 11.1038 20.7301 11.1396C20.7443 11.1756 20.7518 11.2146 20.7516 11.2539C20.7514 11.293 20.7436 11.3316 20.7291 11.3672C20.7146 11.4029 20.6934 11.4355 20.6676 11.4619L12.9293 19.3809C12.8781 19.4333 12.8111 19.4616 12.7428 19.4619C12.6745 19.4622 12.6069 19.4347 12.5553 19.3828L9.33752 16.1426L9.33655 16.1406L9.30042 16.0977C9.2899 16.0821 9.28062 16.0656 9.27307 16.0479C9.2579 16.0122 9.24938 15.9731 9.24866 15.9336C9.24793 15.8941 9.25529 15.8547 9.26917 15.8184C9.28303 15.7822 9.30332 15.7497 9.32874 15.7227C9.35422 15.6956 9.38419 15.6745 9.41663 15.6602C9.44904 15.6458 9.48351 15.638 9.51819 15.6377C9.55277 15.6374 9.58723 15.6445 9.61975 15.6582C9.65225 15.6719 9.68281 15.6923 9.70862 15.7188L9.71057 15.7207L12.5612 18.5918L12.7399 18.7715L12.9176 18.5898L20.2916 11.043C20.3173 11.0167 20.3472 10.9961 20.3795 10.9824C20.4119 10.9687 20.4466 10.9617 20.4811 10.9619Z" fill="#202324" stroke="#202324" stroke-width="0.5"></path></svg> 